<svg xmlns="http://www.w3.org/2000/svg" xmlns:xlink="http://www.w3.org/1999/xlink" width="500" zoomAndPan="magnify" viewBox="0 0 375 374.999991" height="500" preserveAspectRatio="xMidYMid meet" version="1.2"><defs><clipPath id="691b4f411a"><path d="M 274.566406 165.800781 L 311.855469 165.800781 L 311.855469 203.089844 L 274.566406 203.089844 Z M 274.566406 165.800781 "/></clipPath><clipPath id="b0b3c84095"><path d="M 293.210938 165.800781 C 282.914062 165.800781 274.566406 174.148438 274.566406 184.445312 C 274.566406 194.742188 282.914062 203.089844 293.210938 203.089844 C 303.507812 203.089844 311.855469 194.742188 311.855469 184.445312 C 311.855469 174.148438 303.507812 165.800781 293.210938 165.800781 Z M 293.210938 165.800781 "/></clipPath></defs><g id="5396fa70d1"><path style="fill:none;stroke-width:30;stroke-linecap:round;stroke-linejoin:miter;stroke:#000000;stroke-opacity:1;stroke-miterlimit:4;" d="M 19.857573 116.777017 C 81.040696 -18.971591 142.217432 -18.927266 203.397641 116.913457 " transform="matrix(0.247682,0.705192,-0.705192,0.247682,158.412371,43.498855)"/><path style="fill:none;stroke-width:30;stroke-linecap:round;stroke-linejoin:miter;stroke:#000000;stroke-opacity:1;stroke-miterlimit:4;" d="M 16.862507 111.839481 C 36.044965 -18.260531 95.168488 -17.271234 194.222496 114.797097 " transform="matrix(-0.749212,-0.0109843,0.0109843,-0.749212,222.389476,307.832118)"/><g clip-rule="nonzero" clip-path="url(#691b4f411a)"><g clip-rule="nonzero" clip-path="url(#b0b3c84095)"><path style=" stroke:none;fill-rule:nonzero;fill:#000000;fill-opacity:1;" d="M 274.566406 165.800781 L 311.855469 165.800781 L 311.855469 203.089844 L 274.566406 203.089844 Z M 274.566406 165.800781 "/></g></g><path style="fill:none;stroke-width:30;stroke-linecap:round;stroke-linejoin:miter;stroke:#000000;stroke-opacity:1;stroke-miterlimit:4;" d="M 20.407024 66.665263 C 146.475258 0.35268 219.755813 -2.127904 240.255912 59.22495 " transform="matrix(0.416532,-0.623699,0.623699,0.416532,160.682454,210.990879)"/><path style="fill:none;stroke-width:20;stroke-linecap:round;stroke-linejoin:miter;stroke:#000000;stroke-opacity:1;stroke-miterlimit:4;" d="M 399.486405 387.120917 L 399.486405 387.225207 C 399.486405 387.251279 399.475976 387.277352 399.455118 387.292995 C 399.439475 387.313853 399.413402 387.324282 399.382115 387.324282 L 69.001689 387.324282 C 36.416265 387.324282 9.999597 360.907614 9.999597 328.327405 L 9.999597 68.999785 C 9.999597 36.414361 36.416265 9.997693 69.001689 9.997693 L 340.484313 9.997693 C 373.069737 9.997693 399.486405 36.414361 399.486405 68.999785 L 399.486405 92.511975 C 399.486405 105.678593 394.256259 118.308117 384.943159 127.616003 C 375.635272 136.929104 363.005748 142.15925 349.83913 142.15925 L 300.191855 142.15925 " transform="matrix(0.749113,0,0,0.749113,33.942768,42.752788)"/><path style="fill:none;stroke-width:30;stroke-linecap:round;stroke-linejoin:miter;stroke:#000000;stroke-opacity:1;stroke-miterlimit:4;" d="M 15.077937 106.912955 L 15.041478 106.912955 C 15.015437 106.912955 14.999812 106.89733 14.999812 106.876497 L 14.999812 15.001491 " transform="matrix(0.75,0,0,0.75,281.96108,216.791851)"/></g></svg>